<svg width="100" height="97" viewBox="0 0 100 97" fill="none" xmlns="http://www.w3.org/2000/svg">
<g style="mix-blend-mode:multiply">
<path d="M12.9297 23C11.7404 23 11.6408 21 12.9297 21C14.3018 21 14.3067 22.3717 13.2184 23" stroke="#616161" stroke-opacity="0.15" stroke-width="7" stroke-linecap="round"/>
</g>
<g style="mix-blend-mode:multiply">
<path d="M36.9297 23C35.7404 23 35.6408 21 36.9297 21C38.3018 21 38.3067 22.3717 37.2184 23" stroke="#616161" stroke-opacity="0.15" stroke-width="7" stroke-linecap="round"/>
</g>
<g style="mix-blend-mode:multiply">
<path d="M60.9297 23C59.7404 23 59.6408 21 60.9297 21C62.3018 21 62.3067 22.3717 61.2184 23" stroke="#616161" stroke-opacity="0.15" stroke-width="7" stroke-linecap="round"/>
</g>
<g style="mix-blend-mode:multiply">
<path d="M84.9297 23C83.7404 23 83.6408 21 84.9297 21C86.3018 21 86.3067 22.3717 85.2184 23" stroke="#616161" stroke-opacity="0.15" stroke-width="7" stroke-linecap="round"/>
</g>
<g style="mix-blend-mode:multiply">
<path d="M12.9297 43C11.7404 43 11.6408 41 12.9297 41C14.3018 41 14.3067 42.3717 13.2184 43" stroke="#616161" stroke-opacity="0.15" stroke-width="7" stroke-linecap="round"/>
</g>
<g style="mix-blend-mode:multiply">
<path d="M36.9297 43C35.7404 43 35.6408 41 36.9297 41C38.3018 41 38.3067 42.3717 37.2184 43" stroke="#616161" stroke-opacity="0.15" stroke-width="7" stroke-linecap="round"/>
</g>
<g style="mix-blend-mode:multiply">
<path d="M60.9297 43C59.7404 43 59.6408 41 60.9297 41C62.3018 41 62.3067 42.3717 61.2184 43" stroke="#616161" stroke-opacity="0.15" stroke-width="7" stroke-linecap="round"/>
</g>
<g style="mix-blend-mode:multiply">
<path d="M84.9297 43C83.7404 43 83.6408 41 84.9297 41C86.3018 41 86.3067 42.3717 85.2184 43" stroke="#616161" stroke-opacity="0.15" stroke-width="7" stroke-linecap="round"/>
</g>
<g style="mix-blend-mode:multiply">
<path d="M12.9297 83C11.7404 83 11.6408 81 12.9297 81C14.3018 81 14.3067 82.3717 13.2184 83" stroke="#616161" stroke-opacity="0.15" stroke-width="7" stroke-linecap="round"/>
</g>
<g style="mix-blend-mode:multiply">
<path d="M36.9297 83C35.7404 83 35.6408 81 36.9297 81C38.3018 81 38.3067 82.3717 37.2184 83" stroke="#616161" stroke-opacity="0.15" stroke-width="7" stroke-linecap="round"/>
</g>
<g style="mix-blend-mode:multiply">
<path d="M60.9297 83C59.7404 83 59.6408 81 60.9297 81C62.3018 81 62.3067 82.3717 61.2184 83" stroke="#616161" stroke-opacity="0.15" stroke-width="7" stroke-linecap="round"/>
</g>
<g style="mix-blend-mode:multiply">
<path d="M84.9297 83C83.7404 83 83.6408 81 84.9297 81C86.3018 81 86.3067 82.3717 85.2184 83" stroke="#616161" stroke-opacity="0.15" stroke-width="7" stroke-linecap="round"/>
</g>
<g style="mix-blend-mode:multiply">
<path d="M12.9297 63C11.7404 63 11.6408 61 12.9297 61C14.3018 61 14.3067 62.3717 13.2184 63" stroke="#616161" stroke-opacity="0.15" stroke-width="7" stroke-linecap="round"/>
</g>
<g style="mix-blend-mode:multiply">
<path d="M36.9297 63C35.7404 63 35.6408 61 36.9297 61C38.3018 61 38.3067 62.3717 37.2184 63" stroke="#616161" stroke-opacity="0.15" stroke-width="7" stroke-linecap="round"/>
</g>
<g style="mix-blend-mode:multiply">
<path d="M60.9297 63C59.7404 63 59.6408 61 60.9297 61C62.3018 61 62.3067 62.3717 61.2184 63" stroke="#616161" stroke-opacity="0.15" stroke-width="7" stroke-linecap="round"/>
</g>
<g style="mix-blend-mode:multiply">
<path d="M84.9297 63C83.7404 63 83.6408 61 84.9297 61C86.3018 61 86.3067 62.3717 85.2184 63" stroke="#616161" stroke-opacity="0.15" stroke-width="7" stroke-linecap="round"/>
</g>
</svg>
