<svg width="106" height="19" viewBox="0 0 106 19" fill="none" xmlns="http://www.w3.org/2000/svg">
<path d="M6.816 18.24C5.376 18.24 4.288 17.864 3.552 17.112C2.816 16.36 2.448 15.232 2.448 13.728V8.136H0.12V5.88H2.448V2.784L5.448 2.016V5.88H8.688V8.136H5.448V13.536C5.448 14.368 5.608 14.952 5.928 15.288C6.248 15.624 6.688 15.792 7.248 15.792C7.552 15.792 7.808 15.768 8.016 15.72C8.24 15.672 8.456 15.608 8.664 15.528V17.904C8.392 18.016 8.088 18.096 7.752 18.144C7.432 18.208 7.12 18.24 6.816 18.24ZM10.7018 18V8.976C10.7018 8.464 10.6858 7.944 10.6538 7.416C10.6378 6.888 10.5978 6.376 10.5338 5.88H13.4378L13.7738 9.192H13.2938C13.4538 8.392 13.7178 7.728 14.0858 7.2C14.4698 6.672 14.9338 6.28 15.4778 6.024C16.0218 5.768 16.6138 5.64 17.2538 5.64C17.5418 5.64 17.7738 5.656 17.9498 5.688C18.1258 5.704 18.3018 5.744 18.4778 5.808L18.4538 8.448C18.1498 8.32 17.8858 8.24 17.6618 8.208C17.4538 8.176 17.1898 8.16 16.8698 8.16C16.1818 8.16 15.5978 8.304 15.1178 8.592C14.6538 8.88 14.3018 9.28 14.0618 9.792C13.8378 10.304 13.7258 10.888 13.7258 11.544V18H10.7018ZM25.8161 18.24C23.7841 18.24 22.1921 17.68 21.0401 16.56C19.8881 15.44 19.3121 13.904 19.3121 11.952C19.3121 10.688 19.5601 9.584 20.0561 8.64C20.5521 7.696 21.2401 6.96 22.1201 6.432C23.0161 5.904 24.0561 5.64 25.2401 5.64C26.4081 5.64 27.3841 5.888 28.1681 6.384C28.9521 6.88 29.5441 7.576 29.9441 8.472C30.3601 9.368 30.5681 10.416 30.5681 11.616V12.408H21.7361V10.824H28.4321L28.0241 11.16C28.0241 10.04 27.7841 9.184 27.3041 8.592C26.8401 8 26.1601 7.704 25.2641 7.704C24.2721 7.704 23.5041 8.056 22.9601 8.76C22.4321 9.464 22.1681 10.448 22.1681 11.712V12.024C22.1681 13.336 22.4881 14.32 23.1281 14.976C23.7841 15.616 24.7041 15.936 25.8881 15.936C26.5761 15.936 27.2161 15.848 27.8081 15.672C28.4161 15.48 28.9921 15.176 29.5361 14.76L30.4241 16.776C29.8481 17.24 29.1601 17.6 28.3601 17.856C27.5601 18.112 26.7121 18.24 25.8161 18.24ZM33.1086 18V5.88H36.1086V18H33.1086ZM32.9406 3.6V0.671999H36.2766V3.6H32.9406ZM39.3664 18V8.904C39.3664 8.408 39.3504 7.904 39.3184 7.392C39.2864 6.88 39.2384 6.376 39.1744 5.88H42.0784L42.3184 8.28H42.0304C42.4144 7.432 42.9824 6.784 43.7344 6.336C44.4864 5.872 45.3584 5.64 46.3504 5.64C47.7744 5.64 48.8464 6.04 49.5664 6.84C50.2864 7.64 50.6464 8.888 50.6464 10.584V18H47.6464V10.728C47.6464 9.752 47.4544 9.056 47.0704 8.64C46.7024 8.208 46.1424 7.992 45.3904 7.992C44.4624 7.992 43.7264 8.28 43.1824 8.856C42.6384 9.432 42.3664 10.2 42.3664 11.16V18H39.3664ZM59.6833 18.24C57.6513 18.24 56.0593 17.68 54.9073 16.56C53.7553 15.44 53.1793 13.904 53.1793 11.952C53.1793 10.688 53.4273 9.584 53.9233 8.64C54.4193 7.696 55.1073 6.96 55.9873 6.432C56.8833 5.904 57.9233 5.64 59.1073 5.64C60.2753 5.64 61.2513 5.888 62.0353 6.384C62.8193 6.88 63.4113 7.576 63.8113 8.472C64.2273 9.368 64.4353 10.416 64.4353 11.616V12.408H55.6033V10.824H62.2993L61.8913 11.16C61.8913 10.04 61.6513 9.184 61.1713 8.592C60.7073 8 60.0273 7.704 59.1313 7.704C58.1393 7.704 57.3713 8.056 56.8273 8.76C56.2993 9.464 56.0353 10.448 56.0353 11.712V12.024C56.0353 13.336 56.3553 14.32 56.9953 14.976C57.6513 15.616 58.5713 15.936 59.7553 15.936C60.4433 15.936 61.0833 15.848 61.6753 15.672C62.2833 15.48 62.8593 15.176 63.4033 14.76L64.2913 16.776C63.7153 17.24 63.0273 17.6 62.2273 17.856C61.4273 18.112 60.5793 18.24 59.6833 18.24ZM66.6398 18V14.664H69.9998V18H66.6398ZM72.9289 18V8.904C72.9289 8.408 72.9129 7.904 72.8809 7.392C72.8489 6.88 72.8009 6.376 72.7369 5.88H75.6409L75.8809 8.28H75.5929C75.9289 7.448 76.4409 6.8 77.1289 6.336C77.8329 5.872 78.6649 5.64 79.6249 5.64C80.5849 5.64 81.3769 5.872 82.0009 6.336C82.6409 6.784 83.0889 7.488 83.3449 8.448H82.9609C83.2969 7.584 83.8489 6.904 84.6169 6.408C85.3849 5.896 86.2649 5.64 87.2569 5.64C88.6169 5.64 89.6329 6.04 90.3049 6.84C90.9769 7.64 91.3129 8.888 91.3129 10.584V18H88.3129V10.704C88.3129 9.744 88.1529 9.056 87.8329 8.64C87.5129 8.208 87.0009 7.992 86.2969 7.992C85.4649 7.992 84.8089 8.288 84.3289 8.88C83.8489 9.456 83.6089 10.24 83.6089 11.232V18H80.6089V10.704C80.6089 9.744 80.4489 9.056 80.1289 8.64C79.8089 8.208 79.2969 7.992 78.5929 7.992C77.7609 7.992 77.1049 8.288 76.6249 8.88C76.1609 9.456 75.9289 10.24 75.9289 11.232V18H72.9289ZM100.371 18.24C98.3388 18.24 96.7468 17.68 95.5948 16.56C94.4428 15.44 93.8668 13.904 93.8668 11.952C93.8668 10.688 94.1148 9.584 94.6108 8.64C95.1068 7.696 95.7948 6.96 96.6748 6.432C97.5708 5.904 98.6108 5.64 99.7948 5.64C100.963 5.64 101.939 5.888 102.723 6.384C103.507 6.88 104.099 7.576 104.499 8.472C104.915 9.368 105.123 10.416 105.123 11.616V12.408H96.2908V10.824H102.987L102.579 11.16C102.579 10.04 102.339 9.184 101.859 8.592C101.395 8 100.715 7.704 99.8188 7.704C98.8268 7.704 98.0588 8.056 97.5148 8.76C96.9868 9.464 96.7228 10.448 96.7228 11.712V12.024C96.7228 13.336 97.0428 14.32 97.6828 14.976C98.3388 15.616 99.2588 15.936 100.443 15.936C101.131 15.936 101.771 15.848 102.363 15.672C102.971 15.48 103.547 15.176 104.091 14.76L104.979 16.776C104.403 17.24 103.715 17.6 102.915 17.856C102.115 18.112 101.267 18.24 100.371 18.24Z" fill="#79BA7E"/>
</svg>
